<svg width="38" height="30" viewBox="0 0 38 30" fill="none" xmlns="http://www.w3.org/2000/svg">
<path d="M18.75 0C20.3531 0 21.9975 0.0412502 23.5912 0.10875L25.4738 0.19875L27.2756 0.305625L28.9631 0.42L30.5044 0.54C32.177 0.668021 33.7508 1.38178 34.9491 2.5557C36.1474 3.72962 36.8933 5.28851 37.0556 6.95812L37.1306 7.755L37.2713 9.46125C37.4025 11.2294 37.5 13.1569 37.5 15C37.5 16.8431 37.4025 18.7706 37.2713 20.5388L37.1306 22.245C37.1062 22.5188 37.0819 22.7831 37.0556 23.0419C36.8932 24.7118 36.1471 26.2709 34.9484 27.4449C33.7497 28.6188 32.1754 29.3324 30.5025 29.46L28.965 29.5781L27.2775 29.6944L25.4738 29.8012L23.5912 29.8912C21.9784 29.9613 20.3643 29.9976 18.75 30C17.1357 29.9976 15.5216 29.9613 13.9088 29.8912L12.0262 29.8012L10.2244 29.6944L8.53687 29.5781L6.99562 29.46C5.32303 29.332 3.74916 28.6182 2.55089 27.4443C1.35261 26.2704 0.606702 24.7115 0.444375 23.0419L0.369375 22.245L0.22875 20.5388C0.0853829 18.6959 0.00908254 16.8484 0 15C0 13.1569 0.0975 11.2294 0.22875 9.46125L0.369375 7.755C0.39375 7.48125 0.418125 7.21687 0.444375 6.95812C0.606639 5.28881 1.35228 3.73015 2.55017 2.55627C3.74806 1.38238 5.32149 0.668442 6.99375 0.54L8.53313 0.42L10.2206 0.305625L12.0244 0.19875L13.9069 0.10875C15.5203 0.0386868 17.135 0.00242866 18.75 0ZM18.75 3.75C17.2031 3.75 15.6112 3.79125 14.0625 3.855L12.2288 3.94313L10.4681 4.04625L8.81438 4.15875L7.29938 4.27688C6.50312 4.33337 5.75258 4.66996 5.1808 5.22699C4.60902 5.78401 4.25292 6.52549 4.17563 7.32C3.95625 9.58687 3.75 12.4088 3.75 15C3.75 17.5912 3.95625 20.4131 4.17563 22.68C4.335 24.315 5.6325 25.5862 7.29938 25.7231L8.81438 25.8394L10.4681 25.9519L12.2288 26.0569L14.0625 26.145C15.6112 26.2088 17.2031 26.25 18.75 26.25C20.2969 26.25 21.8888 26.2088 23.4375 26.145L25.2712 26.0569L27.0319 25.9537L28.6856 25.8412L30.2006 25.7231C30.9969 25.6666 31.7474 25.33 32.3192 24.773C32.891 24.216 33.2471 23.4745 33.3244 22.68C33.5438 20.4131 33.75 17.5912 33.75 15C33.75 12.4088 33.5438 9.58687 33.3244 7.32C33.2471 6.52549 32.891 5.78401 32.3192 5.22699C31.7474 4.66996 30.9969 4.33337 30.2006 4.27688L28.6856 4.16062L27.0319 4.04812L25.2712 3.94313L23.4375 3.855C21.8759 3.78781 20.3131 3.7528 18.75 3.75ZM15 10.4531C14.9999 10.2699 15.0445 10.0894 15.1301 9.92729C15.2156 9.76522 15.3394 9.6265 15.4908 9.52319C15.6421 9.41988 15.8165 9.35511 15.9985 9.33451C16.1806 9.31391 16.365 9.33811 16.5356 9.405L16.6875 9.48L24.5625 14.025C24.7193 14.1155 24.852 14.2425 24.9492 14.3952C25.0465 14.5479 25.1054 14.7218 25.1211 14.9022C25.1367 15.0826 25.1086 15.2641 25.0391 15.4313C24.9696 15.5984 24.8608 15.7464 24.7219 15.8625L24.5625 15.975L16.6875 20.5219C16.5288 20.6138 16.3501 20.6655 16.1668 20.6725C15.9836 20.6795 15.8014 20.6416 15.6361 20.5621C15.4708 20.4827 15.3275 20.364 15.2186 20.2164C15.1097 20.0689 15.0385 19.897 15.0112 19.7156L15 19.5469V10.4531Z" fill="#FFF9FF"/>
</svg>
